<?xml version="1.0" encoding="UTF-8" standalone="no"?>
<!DOCTYPE svg PUBLIC "-//W3C//DTD SVG 1.1//EN"
 "http://www.w3.org/Graphics/SVG/1.1/DTD/svg11.dtd">
<!-- Generated by graphviz version 8.0.3 (20230416.2022)
 -->
<!-- Title: Tree Pages: 1 -->
<svg width="2482pt" height="671pt"
 viewBox="0.00 0.00 2482.00 671.00" xmlns="http://www.w3.org/2000/svg" xmlns:xlink="http://www.w3.org/1999/xlink">
<g id="graph0" class="graph" transform="scale(1 1) rotate(0) translate(4 667)">
<title>Tree</title>
<polygon fill="white" stroke="none" points="-4,4 -4,-667 2478,-667 2478,4 -4,4"/>
<!-- 0 -->
<g id="node1" class="node">
<title>0</title>
<polygon fill="#f3c3a1" stroke="black" points="1323,-663 1192,-663 1192,-580 1323,-580 1323,-663"/>
<text text-anchor="middle" x="1257.5" y="-647.8" font-family="Helvetica,sans-Serif" font-size="14.00">Glucose &lt;= 133.5</text>
<text text-anchor="middle" x="1257.5" y="-632.8" font-family="Helvetica,sans-Serif" font-size="14.00">entropy = 0.93</text>
<text text-anchor="middle" x="1257.5" y="-617.8" font-family="Helvetica,sans-Serif" font-size="14.00">samples = 614</text>
<text text-anchor="middle" x="1257.5" y="-602.8" font-family="Helvetica,sans-Serif" font-size="14.00">value = [402, 212]</text>
<text text-anchor="middle" x="1257.5" y="-587.8" font-family="Helvetica,sans-Serif" font-size="14.00">class = Negative</text>
</g>
<!-- 1 -->
<g id="node2" class="node">
<title>1</title>
<polygon fill="#eca36f" stroke="black" points="890.5,-544 768.5,-544 768.5,-461 890.5,-461 890.5,-544"/>
<text text-anchor="middle" x="829.5" y="-528.8" font-family="Helvetica,sans-Serif" font-size="14.00">BMI &lt;= 26.35</text>
<text text-anchor="middle" x="829.5" y="-513.8" font-family="Helvetica,sans-Serif" font-size="14.00">entropy = 0.747</text>
<text text-anchor="middle" x="829.5" y="-498.8" font-family="Helvetica,sans-Serif" font-size="14.00">samples = 432</text>
<text text-anchor="middle" x="829.5" y="-483.8" font-family="Helvetica,sans-Serif" font-size="14.00">value = [340, 92]</text>
<text text-anchor="middle" x="829.5" y="-468.8" font-family="Helvetica,sans-Serif" font-size="14.00">class = Negative</text>
</g>
<!-- 0&#45;&gt;1 -->
<g id="edge1" class="edge">
<title>0&#45;&gt;1</title>
<path fill="none" stroke="black" d="M1191.56,-602.48C1113.13,-581.03 982.65,-545.37 901.61,-523.21"/>
<polygon fill="black" stroke="black" points="902.57,-519.57 892,-520.31 900.72,-526.32 902.57,-519.57"/>
<text text-anchor="middle" x="903.39" y="-538.32" font-family="Helvetica,sans-Serif" font-size="14.00">True</text>
</g>
<!-- 24 -->
<g id="node25" class="node">
<title>24</title>
<polygon fill="#9fd0f2" stroke="black" points="1730,-544 1599,-544 1599,-461 1730,-461 1730,-544"/>
<text text-anchor="middle" x="1664.5" y="-528.8" font-family="Helvetica,sans-Serif" font-size="14.00">Glucose &lt;= 166.5</text>
<text text-anchor="middle" x="1664.5" y="-513.8" font-family="Helvetica,sans-Serif" font-size="14.00">entropy = 0.925</text>
<text text-anchor="middle" x="1664.5" y="-498.8" font-family="Helvetica,sans-Serif" font-size="14.00">samples = 182</text>
<text text-anchor="middle" x="1664.5" y="-483.8" font-family="Helvetica,sans-Serif" font-size="14.00">value = [62, 120]</text>
<text text-anchor="middle" x="1664.5" y="-468.8" font-family="Helvetica,sans-Serif" font-size="14.00">class = Positive</text>
</g>
<!-- 0&#45;&gt;24 -->
<g id="edge24" class="edge">
<title>0&#45;&gt;24</title>
<path fill="none" stroke="black" d="M1323.34,-601.57C1395.76,-580.76 1511.95,-547.35 1588.26,-525.42"/>
<polygon fill="black" stroke="black" points="1589.11,-528.53 1597.75,-522.4 1587.17,-521.8 1589.11,-528.53"/>
<text text-anchor="middle" x="1586.65" y="-540.57" font-family="Helvetica,sans-Serif" font-size="14.00">False</text>
</g>
<!-- 2 -->
<g id="node3" class="node">
<title>2</title>
<polygon fill="#e6833d" stroke="black" points="270,-425 139,-425 139,-342 270,-342 270,-425"/>
<text text-anchor="middle" x="204.5" y="-409.8" font-family="Helvetica,sans-Serif" font-size="14.00">Glucose &lt;= 106.5</text>
<text text-anchor="middle" x="204.5" y="-394.8" font-family="Helvetica,sans-Serif" font-size="14.00">entropy = 0.136</text>
<text text-anchor="middle" x="204.5" y="-379.8" font-family="Helvetica,sans-Serif" font-size="14.00">samples = 105</text>
<text text-anchor="middle" x="204.5" y="-364.8" font-family="Helvetica,sans-Serif" font-size="14.00">value = [103, 2]</text>
<text text-anchor="middle" x="204.5" y="-349.8" font-family="Helvetica,sans-Serif" font-size="14.00">class = Negative</text>
</g>
<!-- 1&#45;&gt;2 -->
<g id="edge2" class="edge">
<title>1&#45;&gt;2</title>
<path fill="none" stroke="black" d="M768.15,-490.02C653.39,-468.53 406.55,-422.32 281.08,-398.84"/>
<polygon fill="black" stroke="black" points="281.9,-395.24 271.43,-396.84 280.61,-402.12 281.9,-395.24"/>
</g>
<!-- 9 -->
<g id="node10" class="node">
<title>9</title>
<polygon fill="#efb184" stroke="black" points="890.5,-425 768.5,-425 768.5,-342 890.5,-342 890.5,-425"/>
<text text-anchor="middle" x="829.5" y="-409.8" font-family="Helvetica,sans-Serif" font-size="14.00">Age &lt;= 29.5</text>
<text text-anchor="middle" x="829.5" y="-394.8" font-family="Helvetica,sans-Serif" font-size="14.00">entropy = 0.849</text>
<text text-anchor="middle" x="829.5" y="-379.8" font-family="Helvetica,sans-Serif" font-size="14.00">samples = 327</text>
<text text-anchor="middle" x="829.5" y="-364.8" font-family="Helvetica,sans-Serif" font-size="14.00">value = [237, 90]</text>
<text text-anchor="middle" x="829.5" y="-349.8" font-family="Helvetica,sans-Serif" font-size="14.00">class = Negative</text>
</g>
<!-- 1&#45;&gt;9 -->
<g id="edge9" class="edge">
<title>1&#45;&gt;9</title>
<path fill="none" stroke="black" d="M829.5,-460.58C829.5,-452.7 829.5,-444.34 829.5,-436.17"/>
<polygon fill="black" stroke="black" points="833,-436.2 829.5,-426.2 826,-436.2 833,-436.2"/>
</g>
<!-- 3 -->
<g id="node4" class="node">
<title>3</title>
<polygon fill="#e58139" stroke="black" points="121,-298.5 0,-298.5 0,-230.5 121,-230.5 121,-298.5"/>
<text text-anchor="middle" x="60.5" y="-283.3" font-family="Helvetica,sans-Serif" font-size="14.00">entropy = 0.0</text>
<text text-anchor="middle" x="60.5" y="-268.3" font-family="Helvetica,sans-Serif" font-size="14.00">samples = 68</text>
<text text-anchor="middle" x="60.5" y="-253.3" font-family="Helvetica,sans-Serif" font-size="14.00">value = [68, 0]</text>
<text text-anchor="middle" x="60.5" y="-238.3" font-family="Helvetica,sans-Serif" font-size="14.00">class = Negative</text>
</g>
<!-- 2&#45;&gt;3 -->
<g id="edge3" class="edge">
<title>2&#45;&gt;3</title>
<path fill="none" stroke="black" d="M154.14,-341.58C139.76,-329.9 124.12,-317.19 109.81,-305.57"/>
<polygon fill="black" stroke="black" points="112.53,-302.45 102.56,-298.86 108.11,-307.88 112.53,-302.45"/>
</g>
<!-- 4 -->
<g id="node5" class="node">
<title>4</title>
<polygon fill="#e68844" stroke="black" points="270,-306 139,-306 139,-223 270,-223 270,-306"/>
<text text-anchor="middle" x="204.5" y="-290.8" font-family="Helvetica,sans-Serif" font-size="14.00">Glucose &lt;= 107.5</text>
<text text-anchor="middle" x="204.5" y="-275.8" font-family="Helvetica,sans-Serif" font-size="14.00">entropy = 0.303</text>
<text text-anchor="middle" x="204.5" y="-260.8" font-family="Helvetica,sans-Serif" font-size="14.00">samples = 37</text>
<text text-anchor="middle" x="204.5" y="-245.8" font-family="Helvetica,sans-Serif" font-size="14.00">value = [35, 2]</text>
<text text-anchor="middle" x="204.5" y="-230.8" font-family="Helvetica,sans-Serif" font-size="14.00">class = Negative</text>
</g>
<!-- 2&#45;&gt;4 -->
<g id="edge4" class="edge">
<title>2&#45;&gt;4</title>
<path fill="none" stroke="black" d="M204.5,-341.58C204.5,-333.7 204.5,-325.34 204.5,-317.17"/>
<polygon fill="black" stroke="black" points="208,-317.2 204.5,-307.2 201,-317.2 208,-317.2"/>
</g>
<!-- 5 -->
<g id="node6" class="node">
<title>5</title>
<polygon fill="#399de5" stroke="black" points="116.5,-179.5 0.5,-179.5 0.5,-111.5 116.5,-111.5 116.5,-179.5"/>
<text text-anchor="middle" x="58.5" y="-164.3" font-family="Helvetica,sans-Serif" font-size="14.00">entropy = 0.0</text>
<text text-anchor="middle" x="58.5" y="-149.3" font-family="Helvetica,sans-Serif" font-size="14.00">samples = 1</text>
<text text-anchor="middle" x="58.5" y="-134.3" font-family="Helvetica,sans-Serif" font-size="14.00">value = [0, 1]</text>
<text text-anchor="middle" x="58.5" y="-119.3" font-family="Helvetica,sans-Serif" font-size="14.00">class = Positive</text>
</g>
<!-- 4&#45;&gt;5 -->
<g id="edge5" class="edge">
<title>4&#45;&gt;5</title>
<path fill="none" stroke="black" d="M153.44,-222.58C138.86,-210.9 123,-198.19 108.5,-186.57"/>
<polygon fill="black" stroke="black" points="111.12,-183.38 101.13,-179.86 106.74,-188.85 111.12,-183.38"/>
</g>
<!-- 6 -->
<g id="node7" class="node">
<title>6</title>
<polygon fill="#e6853f" stroke="black" points="274.5,-187 134.5,-187 134.5,-104 274.5,-104 274.5,-187"/>
<text text-anchor="middle" x="204.5" y="-171.8" font-family="Helvetica,sans-Serif" font-size="14.00">Pregnancies &lt;= 9.5</text>
<text text-anchor="middle" x="204.5" y="-156.8" font-family="Helvetica,sans-Serif" font-size="14.00">entropy = 0.183</text>
<text text-anchor="middle" x="204.5" y="-141.8" font-family="Helvetica,sans-Serif" font-size="14.00">samples = 36</text>
<text text-anchor="middle" x="204.5" y="-126.8" font-family="Helvetica,sans-Serif" font-size="14.00">value = [35, 1]</text>
<text text-anchor="middle" x="204.5" y="-111.8" font-family="Helvetica,sans-Serif" font-size="14.00">class = Negative</text>
</g>
<!-- 4&#45;&gt;6 -->
<g id="edge6" class="edge">
<title>4&#45;&gt;6</title>
<path fill="none" stroke="black" d="M204.5,-222.58C204.5,-214.7 204.5,-206.34 204.5,-198.17"/>
<polygon fill="black" stroke="black" points="208,-198.2 204.5,-188.2 201,-198.2 208,-198.2"/>
</g>
<!-- 7 -->
<g id="node8" class="node">
<title>7</title>
<polygon fill="#e58139" stroke="black" points="128,-68 7,-68 7,0 128,0 128,-68"/>
<text text-anchor="middle" x="67.5" y="-52.8" font-family="Helvetica,sans-Serif" font-size="14.00">entropy = 0.0</text>
<text text-anchor="middle" x="67.5" y="-37.8" font-family="Helvetica,sans-Serif" font-size="14.00">samples = 35</text>
<text text-anchor="middle" x="67.5" y="-22.8" font-family="Helvetica,sans-Serif" font-size="14.00">value = [35, 0]</text>
<text text-anchor="middle" x="67.5" y="-7.8" font-family="Helvetica,sans-Serif" font-size="14.00">class = Negative</text>
</g>
<!-- 6&#45;&gt;7 -->
<g id="edge7" class="edge">
<title>6&#45;&gt;7</title>
<path fill="none" stroke="black" d="M153.49,-103.73C141.73,-94.33 129.24,-84.35 117.53,-74.99"/>
<polygon fill="black" stroke="black" points="120.16,-71.81 110.16,-68.3 115.79,-77.28 120.16,-71.81"/>
</g>
<!-- 8 -->
<g id="node9" class="node">
<title>8</title>
<polygon fill="#399de5" stroke="black" points="262.5,-68 146.5,-68 146.5,0 262.5,0 262.5,-68"/>
<text text-anchor="middle" x="204.5" y="-52.8" font-family="Helvetica,sans-Serif" font-size="14.00">entropy = 0.0</text>
<text text-anchor="middle" x="204.5" y="-37.8" font-family="Helvetica,sans-Serif" font-size="14.00">samples = 1</text>
<text text-anchor="middle" x="204.5" y="-22.8" font-family="Helvetica,sans-Serif" font-size="14.00">value = [0, 1]</text>
<text text-anchor="middle" x="204.5" y="-7.8" font-family="Helvetica,sans-Serif" font-size="14.00">class = Positive</text>
</g>
<!-- 6&#45;&gt;8 -->
<g id="edge8" class="edge">
<title>6&#45;&gt;8</title>
<path fill="none" stroke="black" d="M204.5,-103.73C204.5,-95.7 204.5,-87.24 204.5,-79.11"/>
<polygon fill="black" stroke="black" points="208,-79.3 204.5,-69.3 201,-79.3 208,-79.3"/>
</g>
<!-- 10 -->
<g id="node11" class="node">
<title>10</title>
<polygon fill="#ea975b" stroke="black" points="756.5,-306 634.5,-306 634.5,-223 756.5,-223 756.5,-306"/>
<text text-anchor="middle" x="695.5" y="-290.8" font-family="Helvetica,sans-Serif" font-size="14.00">BMI &lt;= 45.4</text>
<text text-anchor="middle" x="695.5" y="-275.8" font-family="Helvetica,sans-Serif" font-size="14.00">entropy = 0.604</text>
<text text-anchor="middle" x="695.5" y="-260.8" font-family="Helvetica,sans-Serif" font-size="14.00">samples = 176</text>
<text text-anchor="middle" x="695.5" y="-245.8" font-family="Helvetica,sans-Serif" font-size="14.00">value = [150, 26]</text>
<text text-anchor="middle" x="695.5" y="-230.8" font-family="Helvetica,sans-Serif" font-size="14.00">class = Negative</text>
</g>
<!-- 9&#45;&gt;10 -->
<g id="edge10" class="edge">
<title>9&#45;&gt;10</title>
<path fill="none" stroke="black" d="M782.63,-341.58C772.17,-332.44 760.98,-322.67 750.23,-313.29"/>
<polygon fill="black" stroke="black" points="752.95,-310.14 743.11,-306.2 748.34,-315.41 752.95,-310.14"/>
</g>
<!-- 17 -->
<g id="node18" class="node">
<title>17</title>
<polygon fill="#f8decb" stroke="black" points="1030,-306 899,-306 899,-223 1030,-223 1030,-306"/>
<text text-anchor="middle" x="964.5" y="-290.8" font-family="Helvetica,sans-Serif" font-size="14.00">Glucose &lt;= 106.5</text>
<text text-anchor="middle" x="964.5" y="-275.8" font-family="Helvetica,sans-Serif" font-size="14.00">entropy = 0.983</text>
<text text-anchor="middle" x="964.5" y="-260.8" font-family="Helvetica,sans-Serif" font-size="14.00">samples = 151</text>
<text text-anchor="middle" x="964.5" y="-245.8" font-family="Helvetica,sans-Serif" font-size="14.00">value = [87, 64]</text>
<text text-anchor="middle" x="964.5" y="-230.8" font-family="Helvetica,sans-Serif" font-size="14.00">class = Negative</text>
</g>
<!-- 9&#45;&gt;17 -->
<g id="edge17" class="edge">
<title>9&#45;&gt;17</title>
<path fill="none" stroke="black" d="M876.72,-341.58C887.26,-332.44 898.53,-322.67 909.36,-313.29"/>
<polygon fill="black" stroke="black" points="911.27,-315.39 916.54,-306.2 906.69,-310.1 911.27,-315.39"/>
</g>
<!-- 11 -->
<g id="node12" class="node">
<title>11</title>
<polygon fill="#e99355" stroke="black" points="546,-187 415,-187 415,-104 546,-104 546,-187"/>
<text text-anchor="middle" x="480.5" y="-171.8" font-family="Helvetica,sans-Serif" font-size="14.00">Glucose &lt;= 103.5</text>
<text text-anchor="middle" x="480.5" y="-156.8" font-family="Helvetica,sans-Serif" font-size="14.00">entropy = 0.539</text>
<text text-anchor="middle" x="480.5" y="-141.8" font-family="Helvetica,sans-Serif" font-size="14.00">samples = 170</text>
<text text-anchor="middle" x="480.5" y="-126.8" font-family="Helvetica,sans-Serif" font-size="14.00">value = [149, 21]</text>
<text text-anchor="middle" x="480.5" y="-111.8" font-family="Helvetica,sans-Serif" font-size="14.00">class = Negative</text>
</g>
<!-- 10&#45;&gt;11 -->
<g id="edge11" class="edge">
<title>10&#45;&gt;11</title>
<path fill="none" stroke="black" d="M634.18,-230.13C609.85,-216.89 581.64,-201.54 556.07,-187.62"/>
<polygon fill="black" stroke="black" points="557.87,-184.08 547.42,-182.37 554.53,-190.22 557.87,-184.08"/>
</g>
<!-- 14 -->
<g id="node15" class="node">
<title>14</title>
<polygon fill="#61b1ea" stroke="black" points="819,-187 572,-187 572,-104 819,-104 819,-187"/>
<text text-anchor="middle" x="695.5" y="-171.8" font-family="Helvetica,sans-Serif" font-size="14.00">DiabetesPedigreeFunction &lt;= 0.844</text>
<text text-anchor="middle" x="695.5" y="-156.8" font-family="Helvetica,sans-Serif" font-size="14.00">entropy = 0.65</text>
<text text-anchor="middle" x="695.5" y="-141.8" font-family="Helvetica,sans-Serif" font-size="14.00">samples = 6</text>
<text text-anchor="middle" x="695.5" y="-126.8" font-family="Helvetica,sans-Serif" font-size="14.00">value = [1, 5]</text>
<text text-anchor="middle" x="695.5" y="-111.8" font-family="Helvetica,sans-Serif" font-size="14.00">class = Positive</text>
</g>
<!-- 10&#45;&gt;14 -->
<g id="edge14" class="edge">
<title>10&#45;&gt;14</title>
<path fill="none" stroke="black" d="M695.5,-222.58C695.5,-214.7 695.5,-206.34 695.5,-198.17"/>
<polygon fill="black" stroke="black" points="699,-198.2 695.5,-188.2 692,-198.2 699,-198.2"/>
</g>
<!-- 12 -->
<g id="node13" class="node">
<title>12</title>
<polygon fill="#e78946" stroke="black" points="402,-68 281,-68 281,0 402,0 402,-68"/>
<text text-anchor="middle" x="341.5" y="-52.8" font-family="Helvetica,sans-Serif" font-size="14.00">entropy = 0.337</text>
<text text-anchor="middle" x="341.5" y="-37.8" font-family="Helvetica,sans-Serif" font-size="14.00">samples = 80</text>
<text text-anchor="middle" x="341.5" y="-22.8" font-family="Helvetica,sans-Serif" font-size="14.00">value = [75, 5]</text>
<text text-anchor="middle" x="341.5" y="-7.8" font-family="Helvetica,sans-Serif" font-size="14.00">class = Negative</text>
</g>
<!-- 11&#45;&gt;12 -->
<g id="edge12" class="edge">
<title>11&#45;&gt;12</title>
<path fill="none" stroke="black" d="M428.74,-103.73C416.82,-94.33 404.14,-84.35 392.26,-74.99"/>
<polygon fill="black" stroke="black" points="394.79,-71.74 384.77,-68.3 390.46,-77.24 394.79,-71.74"/>
</g>
<!-- 13 -->
<g id="node14" class="node">
<title>13</title>
<polygon fill="#eb9c64" stroke="black" points="541,-68 420,-68 420,0 541,0 541,-68"/>
<text text-anchor="middle" x="480.5" y="-52.8" font-family="Helvetica,sans-Serif" font-size="14.00">entropy = 0.675</text>
<text text-anchor="middle" x="480.5" y="-37.8" font-family="Helvetica,sans-Serif" font-size="14.00">samples = 90</text>
<text text-anchor="middle" x="480.5" y="-22.8" font-family="Helvetica,sans-Serif" font-size="14.00">value = [74, 16]</text>
<text text-anchor="middle" x="480.5" y="-7.8" font-family="Helvetica,sans-Serif" font-size="14.00">class = Negative</text>
</g>
<!-- 11&#45;&gt;13 -->
<g id="edge13" class="edge">
<title>11&#45;&gt;13</title>
<path fill="none" stroke="black" d="M480.5,-103.73C480.5,-95.7 480.5,-87.24 480.5,-79.11"/>
<polygon fill="black" stroke="black" points="484,-79.3 480.5,-69.3 477,-79.3 484,-79.3"/>
</g>
<!-- 15 -->
<g id="node16" class="node">
<title>15</title>
<polygon fill="#399de5" stroke="black" points="675.5,-68 559.5,-68 559.5,0 675.5,0 675.5,-68"/>
<text text-anchor="middle" x="617.5" y="-52.8" font-family="Helvetica,sans-Serif" font-size="14.00">entropy = 0.0</text>
<text text-anchor="middle" x="617.5" y="-37.8" font-family="Helvetica,sans-Serif" font-size="14.00">samples = 5</text>
<text text-anchor="middle" x="617.5" y="-22.8" font-family="Helvetica,sans-Serif" font-size="14.00">value = [0, 5]</text>
<text text-anchor="middle" x="617.5" y="-7.8" font-family="Helvetica,sans-Serif" font-size="14.00">class = Positive</text>
</g>
<!-- 14&#45;&gt;15 -->
<g id="edge15" class="edge">
<title>14&#45;&gt;15</title>
<path fill="none" stroke="black" d="M666.46,-103.73C660.28,-95.06 653.75,-85.9 647.55,-77.18"/>
<polygon fill="black" stroke="black" points="649.87,-75.41 641.22,-69.3 644.17,-79.48 649.87,-75.41"/>
</g>
<!-- 16 -->
<g id="node17" class="node">
<title>16</title>
<polygon fill="#e58139" stroke="black" points="815,-68 694,-68 694,0 815,0 815,-68"/>
<text text-anchor="middle" x="754.5" y="-52.8" font-family="Helvetica,sans-Serif" font-size="14.00">entropy = 0.0</text>
<text text-anchor="middle" x="754.5" y="-37.8" font-family="Helvetica,sans-Serif" font-size="14.00">samples = 1</text>
<text text-anchor="middle" x="754.5" y="-22.8" font-family="Helvetica,sans-Serif" font-size="14.00">value = [1, 0]</text>
<text text-anchor="middle" x="754.5" y="-7.8" font-family="Helvetica,sans-Serif" font-size="14.00">class = Negative</text>
</g>
<!-- 14&#45;&gt;16 -->
<g id="edge16" class="edge">
<title>14&#45;&gt;16</title>
<path fill="none" stroke="black" d="M717.47,-103.73C722.04,-95.24 726.87,-86.28 731.48,-77.73"/>
<polygon fill="black" stroke="black" points="734.9,-79.76 736.56,-69.3 728.73,-76.44 734.9,-79.76"/>
</g>
<!-- 18 -->
<g id="node19" class="node">
<title>18</title>
<polygon fill="#eda876" stroke="black" points="1088,-187 841,-187 841,-104 1088,-104 1088,-187"/>
<text text-anchor="middle" x="964.5" y="-171.8" font-family="Helvetica,sans-Serif" font-size="14.00">DiabetesPedigreeFunction &lt;= 0.633</text>
<text text-anchor="middle" x="964.5" y="-156.8" font-family="Helvetica,sans-Serif" font-size="14.00">entropy = 0.787</text>
<text text-anchor="middle" x="964.5" y="-141.8" font-family="Helvetica,sans-Serif" font-size="14.00">samples = 68</text>
<text text-anchor="middle" x="964.5" y="-126.8" font-family="Helvetica,sans-Serif" font-size="14.00">value = [52, 16]</text>
<text text-anchor="middle" x="964.5" y="-111.8" font-family="Helvetica,sans-Serif" font-size="14.00">class = Negative</text>
</g>
<!-- 17&#45;&gt;18 -->
<g id="edge18" class="edge">
<title>17&#45;&gt;18</title>
<path fill="none" stroke="black" d="M964.5,-222.58C964.5,-214.7 964.5,-206.34 964.5,-198.17"/>
<polygon fill="black" stroke="black" points="968,-198.2 964.5,-188.2 961,-198.2 968,-198.2"/>
</g>
<!-- 21 -->
<g id="node22" class="node">
<title>21</title>
<polygon fill="#c9e4f8" stroke="black" points="1227.5,-187 1111.5,-187 1111.5,-104 1227.5,-104 1227.5,-187"/>
<text text-anchor="middle" x="1169.5" y="-171.8" font-family="Helvetica,sans-Serif" font-size="14.00">Age &lt;= 57.0</text>
<text text-anchor="middle" x="1169.5" y="-156.8" font-family="Helvetica,sans-Serif" font-size="14.00">entropy = 0.982</text>
<text text-anchor="middle" x="1169.5" y="-141.8" font-family="Helvetica,sans-Serif" font-size="14.00">samples = 83</text>
<text text-anchor="middle" x="1169.5" y="-126.8" font-family="Helvetica,sans-Serif" font-size="14.00">value = [35, 48]</text>
<text text-anchor="middle" x="1169.5" y="-111.8" font-family="Helvetica,sans-Serif" font-size="14.00">class = Positive</text>
</g>
<!-- 17&#45;&gt;21 -->
<g id="edge21" class="edge">
<title>17&#45;&gt;21</title>
<path fill="none" stroke="black" d="M1030.49,-225.84C1053.33,-212.8 1078.95,-198.18 1101.91,-185.07"/>
<polygon fill="black" stroke="black" points="1103.29,-187.75 1110.24,-179.75 1099.82,-181.67 1103.29,-187.75"/>
</g>
<!-- 19 -->
<g id="node20" class="node">
<title>19</title>
<polygon fill="#ea985d" stroke="black" points="954,-68 833,-68 833,0 954,0 954,-68"/>
<text text-anchor="middle" x="893.5" y="-52.8" font-family="Helvetica,sans-Serif" font-size="14.00">entropy = 0.619</text>
<text text-anchor="middle" x="893.5" y="-37.8" font-family="Helvetica,sans-Serif" font-size="14.00">samples = 52</text>
<text text-anchor="middle" x="893.5" y="-22.8" font-family="Helvetica,sans-Serif" font-size="14.00">value = [44, 8]</text>
<text text-anchor="middle" x="893.5" y="-7.8" font-family="Helvetica,sans-Serif" font-size="14.00">class = Negative</text>
</g>
<!-- 18&#45;&gt;19 -->
<g id="edge19" class="edge">
<title>18&#45;&gt;19</title>
<path fill="none" stroke="black" d="M938.06,-103.73C932.5,-95.15 926.63,-86.09 921.03,-77.46"/>
<polygon fill="black" stroke="black" points="923.47,-75.79 915.09,-69.3 917.6,-79.59 923.47,-75.79"/>
</g>
<!-- 20 -->
<g id="node21" class="node">
<title>20</title>
<polygon fill="#ffffff" stroke="black" points="1093,-68 972,-68 972,0 1093,0 1093,-68"/>
<text text-anchor="middle" x="1032.5" y="-52.8" font-family="Helvetica,sans-Serif" font-size="14.00">entropy = 1.0</text>
<text text-anchor="middle" x="1032.5" y="-37.8" font-family="Helvetica,sans-Serif" font-size="14.00">samples = 16</text>
<text text-anchor="middle" x="1032.5" y="-22.8" font-family="Helvetica,sans-Serif" font-size="14.00">value = [8, 8]</text>
<text text-anchor="middle" x="1032.5" y="-7.8" font-family="Helvetica,sans-Serif" font-size="14.00">class = Negative</text>
</g>
<!-- 18&#45;&gt;20 -->
<g id="edge20" class="edge">
<title>18&#45;&gt;20</title>
<path fill="none" stroke="black" d="M989.82,-103.73C995.14,-95.15 1000.77,-86.09 1006.13,-77.46"/>
<polygon fill="black" stroke="black" points="1009.52,-79.64 1011.82,-69.3 1003.57,-75.95 1009.52,-79.64"/>
</g>
<!-- 22 -->
<g id="node23" class="node">
<title>22</title>
<polygon fill="#b5daf5" stroke="black" points="1227.5,-68 1111.5,-68 1111.5,0 1227.5,0 1227.5,-68"/>
<text text-anchor="middle" x="1169.5" y="-52.8" font-family="Helvetica,sans-Serif" font-size="14.00">entropy = 0.961</text>
<text text-anchor="middle" x="1169.5" y="-37.8" font-family="Helvetica,sans-Serif" font-size="14.00">samples = 78</text>
<text text-anchor="middle" x="1169.5" y="-22.8" font-family="Helvetica,sans-Serif" font-size="14.00">value = [30, 48]</text>
<text text-anchor="middle" x="1169.5" y="-7.8" font-family="Helvetica,sans-Serif" font-size="14.00">class = Positive</text>
</g>
<!-- 21&#45;&gt;22 -->
<g id="edge22" class="edge">
<title>21&#45;&gt;22</title>
<path fill="none" stroke="black" d="M1169.5,-103.73C1169.5,-95.7 1169.5,-87.24 1169.5,-79.11"/>
<polygon fill="black" stroke="black" points="1173,-79.3 1169.5,-69.3 1166,-79.3 1173,-79.3"/>
</g>
<!-- 23 -->
<g id="node24" class="node">
<title>23</title>
<polygon fill="#e58139" stroke="black" points="1367,-68 1246,-68 1246,0 1367,0 1367,-68"/>
<text text-anchor="middle" x="1306.5" y="-52.8" font-family="Helvetica,sans-Serif" font-size="14.00">entropy = 0.0</text>
<text text-anchor="middle" x="1306.5" y="-37.8" font-family="Helvetica,sans-Serif" font-size="14.00">samples = 5</text>
<text text-anchor="middle" x="1306.5" y="-22.8" font-family="Helvetica,sans-Serif" font-size="14.00">value = [5, 0]</text>
<text text-anchor="middle" x="1306.5" y="-7.8" font-family="Helvetica,sans-Serif" font-size="14.00">class = Negative</text>
</g>
<!-- 21&#45;&gt;23 -->
<g id="edge23" class="edge">
<title>21&#45;&gt;23</title>
<path fill="none" stroke="black" d="M1220.51,-103.73C1232.27,-94.33 1244.76,-84.35 1256.47,-74.99"/>
<polygon fill="black" stroke="black" points="1258.21,-77.28 1263.84,-68.3 1253.84,-71.81 1258.21,-77.28"/>
</g>
<!-- 25 -->
<g id="node26" class="node">
<title>25</title>
<polygon fill="#e5f2fc" stroke="black" points="1722.5,-425 1606.5,-425 1606.5,-342 1722.5,-342 1722.5,-425"/>
<text text-anchor="middle" x="1664.5" y="-409.8" font-family="Helvetica,sans-Serif" font-size="14.00">BMI &lt;= 27.85</text>
<text text-anchor="middle" x="1664.5" y="-394.8" font-family="Helvetica,sans-Serif" font-size="14.00">entropy = 0.997</text>
<text text-anchor="middle" x="1664.5" y="-379.8" font-family="Helvetica,sans-Serif" font-size="14.00">samples = 116</text>
<text text-anchor="middle" x="1664.5" y="-364.8" font-family="Helvetica,sans-Serif" font-size="14.00">value = [54, 62]</text>
<text text-anchor="middle" x="1664.5" y="-349.8" font-family="Helvetica,sans-Serif" font-size="14.00">class = Positive</text>
</g>
<!-- 24&#45;&gt;25 -->
<g id="edge25" class="edge">
<title>24&#45;&gt;25</title>
<path fill="none" stroke="black" d="M1664.5,-460.58C1664.5,-452.7 1664.5,-444.34 1664.5,-436.17"/>
<polygon fill="black" stroke="black" points="1668,-436.2 1664.5,-426.2 1661,-436.2 1668,-436.2"/>
</g>
<!-- 38 -->
<g id="node39" class="node">
<title>38</title>
<polygon fill="#54abe9" stroke="black" points="2010.5,-425 1894.5,-425 1894.5,-342 2010.5,-342 2010.5,-425"/>
<text text-anchor="middle" x="1952.5" y="-409.8" font-family="Helvetica,sans-Serif" font-size="14.00">BMI &lt;= 23.1</text>
<text text-anchor="middle" x="1952.5" y="-394.8" font-family="Helvetica,sans-Serif" font-size="14.00">entropy = 0.533</text>
<text text-anchor="middle" x="1952.5" y="-379.8" font-family="Helvetica,sans-Serif" font-size="14.00">samples = 66</text>
<text text-anchor="middle" x="1952.5" y="-364.8" font-family="Helvetica,sans-Serif" font-size="14.00">value = [8, 58]</text>
<text text-anchor="middle" x="1952.5" y="-349.8" font-family="Helvetica,sans-Serif" font-size="14.00">class = Positive</text>
</g>
<!-- 24&#45;&gt;38 -->
<g id="edge38" class="edge">
<title>24&#45;&gt;38</title>
<path fill="none" stroke="black" d="M1730.21,-474.8C1776.3,-456.08 1837.77,-431.11 1884.38,-412.17"/>
<polygon fill="black" stroke="black" points="1885.44,-415.11 1893.39,-408.11 1882.81,-408.63 1885.44,-415.11"/>
</g>
<!-- 26 -->
<g id="node27" class="node">
<title>26</title>
<polygon fill="#eeab7b" stroke="black" points="1622.5,-306 1482.5,-306 1482.5,-223 1622.5,-223 1622.5,-306"/>
<text text-anchor="middle" x="1552.5" y="-290.8" font-family="Helvetica,sans-Serif" font-size="14.00">Pregnancies &lt;= 1.5</text>
<text text-anchor="middle" x="1552.5" y="-275.8" font-family="Helvetica,sans-Serif" font-size="14.00">entropy = 0.811</text>
<text text-anchor="middle" x="1552.5" y="-260.8" font-family="Helvetica,sans-Serif" font-size="14.00">samples = 28</text>
<text text-anchor="middle" x="1552.5" y="-245.8" font-family="Helvetica,sans-Serif" font-size="14.00">value = [21, 7]</text>
<text text-anchor="middle" x="1552.5" y="-230.8" font-family="Helvetica,sans-Serif" font-size="14.00">class = Negative</text>
</g>
<!-- 25&#45;&gt;26 -->
<g id="edge26" class="edge">
<title>25&#45;&gt;26</title>
<path fill="none" stroke="black" d="M1625.33,-341.58C1616.84,-332.71 1607.78,-323.25 1599.04,-314.12"/>
<polygon fill="black" stroke="black" points="1601.9,-312 1592.46,-307.2 1596.85,-316.84 1601.9,-312"/>
</g>
<!-- 31 -->
<g id="node32" class="node">
<title>31</title>
<polygon fill="#b0d8f5" stroke="black" points="1835.5,-306 1717.5,-306 1717.5,-223 1835.5,-223 1835.5,-306"/>
<text text-anchor="middle" x="1776.5" y="-290.8" font-family="Helvetica,sans-Serif" font-size="14.00">Insulin &lt;= 378.5</text>
<text text-anchor="middle" x="1776.5" y="-275.8" font-family="Helvetica,sans-Serif" font-size="14.00">entropy = 0.954</text>
<text text-anchor="middle" x="1776.5" y="-260.8" font-family="Helvetica,sans-Serif" font-size="14.00">samples = 88</text>
<text text-anchor="middle" x="1776.5" y="-245.8" font-family="Helvetica,sans-Serif" font-size="14.00">value = [33, 55]</text>
<text text-anchor="middle" x="1776.5" y="-230.8" font-family="Helvetica,sans-Serif" font-size="14.00">class = Positive</text>
</g>
<!-- 25&#45;&gt;31 -->
<g id="edge31" class="edge">
<title>25&#45;&gt;31</title>
<path fill="none" stroke="black" d="M1703.67,-341.58C1712.16,-332.71 1721.22,-323.25 1729.96,-314.12"/>
<polygon fill="black" stroke="black" points="1732.15,-316.84 1736.54,-307.2 1727.1,-312 1732.15,-316.84"/>
</g>
<!-- 27 -->
<g id="node28" class="node">
<title>27</title>
<polygon fill="#e58139" stroke="black" points="1452,-179.5 1331,-179.5 1331,-111.5 1452,-111.5 1452,-179.5"/>
<text text-anchor="middle" x="1391.5" y="-164.3" font-family="Helvetica,sans-Serif" font-size="14.00">entropy = 0.0</text>
<text text-anchor="middle" x="1391.5" y="-149.3" font-family="Helvetica,sans-Serif" font-size="14.00">samples = 10</text>
<text text-anchor="middle" x="1391.5" y="-134.3" font-family="Helvetica,sans-Serif" font-size="14.00">value = [10, 0]</text>
<text text-anchor="middle" x="1391.5" y="-119.3" font-family="Helvetica,sans-Serif" font-size="14.00">class = Negative</text>
</g>
<!-- 26&#45;&gt;27 -->
<g id="edge27" class="edge">
<title>26&#45;&gt;27</title>
<path fill="none" stroke="black" d="M1496.19,-222.58C1479.97,-210.79 1462.31,-197.95 1446.18,-186.24"/>
<polygon fill="black" stroke="black" points="1448.55,-182.91 1438.41,-179.86 1444.44,-188.57 1448.55,-182.91"/>
</g>
<!-- 28 -->
<g id="node29" class="node">
<title>28</title>
<polygon fill="#f6d1b7" stroke="black" points="1634.5,-187 1470.5,-187 1470.5,-104 1634.5,-104 1634.5,-187"/>
<text text-anchor="middle" x="1552.5" y="-171.8" font-family="Helvetica,sans-Serif" font-size="14.00">BloodPressure &lt;= 73.0</text>
<text text-anchor="middle" x="1552.5" y="-156.8" font-family="Helvetica,sans-Serif" font-size="14.00">entropy = 0.964</text>
<text text-anchor="middle" x="1552.5" y="-141.8" font-family="Helvetica,sans-Serif" font-size="14.00">samples = 18</text>
<text text-anchor="middle" x="1552.5" y="-126.8" font-family="Helvetica,sans-Serif" font-size="14.00">value = [11, 7]</text>
<text text-anchor="middle" x="1552.5" y="-111.8" font-family="Helvetica,sans-Serif" font-size="14.00">class = Negative</text>
</g>
<!-- 26&#45;&gt;28 -->
<g id="edge28" class="edge">
<title>26&#45;&gt;28</title>
<path fill="none" stroke="black" d="M1552.5,-222.58C1552.5,-214.7 1552.5,-206.34 1552.5,-198.17"/>
<polygon fill="black" stroke="black" points="1556,-198.2 1552.5,-188.2 1549,-198.2 1556,-198.2"/>
</g>
<!-- 29 -->
<g id="node30" class="node">
<title>29</title>
<polygon fill="#61b1ea" stroke="black" points="1501.5,-68 1385.5,-68 1385.5,0 1501.5,0 1501.5,-68"/>
<text text-anchor="middle" x="1443.5" y="-52.8" font-family="Helvetica,sans-Serif" font-size="14.00">entropy = 0.65</text>
<text text-anchor="middle" x="1443.5" y="-37.8" font-family="Helvetica,sans-Serif" font-size="14.00">samples = 6</text>
<text text-anchor="middle" x="1443.5" y="-22.8" font-family="Helvetica,sans-Serif" font-size="14.00">value = [1, 5]</text>
<text text-anchor="middle" x="1443.5" y="-7.8" font-family="Helvetica,sans-Serif" font-size="14.00">class = Positive</text>
</g>
<!-- 28&#45;&gt;29 -->
<g id="edge29" class="edge">
<title>28&#45;&gt;29</title>
<path fill="none" stroke="black" d="M1511.91,-103.73C1502.92,-94.7 1493.39,-85.12 1484.39,-76.08"/>
<polygon fill="black" stroke="black" points="1487.18,-73.92 1477.65,-69.3 1482.22,-78.86 1487.18,-73.92"/>
</g>
<!-- 30 -->
<g id="node31" class="node">
<title>30</title>
<polygon fill="#ea9a61" stroke="black" points="1641,-68 1520,-68 1520,0 1641,0 1641,-68"/>
<text text-anchor="middle" x="1580.5" y="-52.8" font-family="Helvetica,sans-Serif" font-size="14.00">entropy = 0.65</text>
<text text-anchor="middle" x="1580.5" y="-37.8" font-family="Helvetica,sans-Serif" font-size="14.00">samples = 12</text>
<text text-anchor="middle" x="1580.5" y="-22.8" font-family="Helvetica,sans-Serif" font-size="14.00">value = [10, 2]</text>
<text text-anchor="middle" x="1580.5" y="-7.8" font-family="Helvetica,sans-Serif" font-size="14.00">class = Negative</text>
</g>
<!-- 28&#45;&gt;30 -->
<g id="edge30" class="edge">
<title>28&#45;&gt;30</title>
<path fill="none" stroke="black" d="M1562.93,-103.73C1565,-95.61 1567.19,-87.05 1569.29,-78.84"/>
<polygon fill="black" stroke="black" points="1572.9,-79.85 1571.99,-69.3 1566.12,-78.12 1572.9,-79.85"/>
</g>
<!-- 32 -->
<g id="node33" class="node">
<title>32</title>
<polygon fill="#9ccef2" stroke="black" points="1900,-187 1653,-187 1653,-104 1900,-104 1900,-187"/>
<text text-anchor="middle" x="1776.5" y="-171.8" font-family="Helvetica,sans-Serif" font-size="14.00">DiabetesPedigreeFunction &lt;= 0.438</text>
<text text-anchor="middle" x="1776.5" y="-156.8" font-family="Helvetica,sans-Serif" font-size="14.00">entropy = 0.918</text>
<text text-anchor="middle" x="1776.5" y="-141.8" font-family="Helvetica,sans-Serif" font-size="14.00">samples = 81</text>
<text text-anchor="middle" x="1776.5" y="-126.8" font-family="Helvetica,sans-Serif" font-size="14.00">value = [27, 54]</text>
<text text-anchor="middle" x="1776.5" y="-111.8" font-family="Helvetica,sans-Serif" font-size="14.00">class = Positive</text>
</g>
<!-- 31&#45;&gt;32 -->
<g id="edge32" class="edge">
<title>31&#45;&gt;32</title>
<path fill="none" stroke="black" d="M1776.5,-222.58C1776.5,-214.7 1776.5,-206.34 1776.5,-198.17"/>
<polygon fill="black" stroke="black" points="1780,-198.2 1776.5,-188.2 1773,-198.2 1780,-198.2"/>
</g>
<!-- 35 -->
<g id="node36" class="node">
<title>35</title>
<polygon fill="#e9965a" stroke="black" points="2058.5,-187 1918.5,-187 1918.5,-104 2058.5,-104 2058.5,-187"/>
<text text-anchor="middle" x="1988.5" y="-171.8" font-family="Helvetica,sans-Serif" font-size="14.00">Pregnancies &lt;= 6.0</text>
<text text-anchor="middle" x="1988.5" y="-156.8" font-family="Helvetica,sans-Serif" font-size="14.00">entropy = 0.592</text>
<text text-anchor="middle" x="1988.5" y="-141.8" font-family="Helvetica,sans-Serif" font-size="14.00">samples = 7</text>
<text text-anchor="middle" x="1988.5" y="-126.8" font-family="Helvetica,sans-Serif" font-size="14.00">value = [6, 1]</text>
<text text-anchor="middle" x="1988.5" y="-111.8" font-family="Helvetica,sans-Serif" font-size="14.00">class = Negative</text>
</g>
<!-- 31&#45;&gt;35 -->
<g id="edge35" class="edge">
<title>31&#45;&gt;35</title>
<path fill="none" stroke="black" d="M1835.84,-230.75C1858.44,-218.28 1884.57,-203.86 1908.76,-190.51"/>
<polygon fill="black" stroke="black" points="1910.22,-193.15 1917.28,-185.25 1906.84,-187.02 1910.22,-193.15"/>
</g>
<!-- 33 -->
<g id="node34" class="node">
<title>33</title>
<polygon fill="#d9ecfa" stroke="black" points="1775.5,-68 1659.5,-68 1659.5,0 1775.5,0 1775.5,-68"/>
<text text-anchor="middle" x="1717.5" y="-52.8" font-family="Helvetica,sans-Serif" font-size="14.00">entropy = 0.992</text>
<text text-anchor="middle" x="1717.5" y="-37.8" font-family="Helvetica,sans-Serif" font-size="14.00">samples = 47</text>
<text text-anchor="middle" x="1717.5" y="-22.8" font-family="Helvetica,sans-Serif" font-size="14.00">value = [21, 26]</text>
<text text-anchor="middle" x="1717.5" y="-7.8" font-family="Helvetica,sans-Serif" font-size="14.00">class = Positive</text>
</g>
<!-- 32&#45;&gt;33 -->
<g id="edge33" class="edge">
<title>32&#45;&gt;33</title>
<path fill="none" stroke="black" d="M1754.53,-103.73C1749.96,-95.24 1745.13,-86.28 1740.52,-77.73"/>
<polygon fill="black" stroke="black" points="1743.27,-76.44 1735.44,-69.3 1737.1,-79.76 1743.27,-76.44"/>
</g>
<!-- 34 -->
<g id="node35" class="node">
<title>34</title>
<polygon fill="#63b2eb" stroke="black" points="1909.5,-68 1793.5,-68 1793.5,0 1909.5,0 1909.5,-68"/>
<text text-anchor="middle" x="1851.5" y="-52.8" font-family="Helvetica,sans-Serif" font-size="14.00">entropy = 0.672</text>
<text text-anchor="middle" x="1851.5" y="-37.8" font-family="Helvetica,sans-Serif" font-size="14.00">samples = 34</text>
<text text-anchor="middle" x="1851.5" y="-22.8" font-family="Helvetica,sans-Serif" font-size="14.00">value = [6, 28]</text>
<text text-anchor="middle" x="1851.5" y="-7.8" font-family="Helvetica,sans-Serif" font-size="14.00">class = Positive</text>
</g>
<!-- 32&#45;&gt;34 -->
<g id="edge34" class="edge">
<title>32&#45;&gt;34</title>
<path fill="none" stroke="black" d="M1804.43,-103.73C1810.36,-95.06 1816.64,-85.9 1822.61,-77.18"/>
<polygon fill="black" stroke="black" points="1825.93,-79.53 1828.69,-69.3 1820.15,-75.57 1825.93,-79.53"/>
</g>
<!-- 36 -->
<g id="node37" class="node">
<title>36</title>
<polygon fill="#e58139" stroke="black" points="2049,-68 1928,-68 1928,0 2049,0 2049,-68"/>
<text text-anchor="middle" x="1988.5" y="-52.8" font-family="Helvetica,sans-Serif" font-size="14.00">entropy = 0.0</text>
<text text-anchor="middle" x="1988.5" y="-37.8" font-family="Helvetica,sans-Serif" font-size="14.00">samples = 6</text>
<text text-anchor="middle" x="1988.5" y="-22.8" font-family="Helvetica,sans-Serif" font-size="14.00">value = [6, 0]</text>
<text text-anchor="middle" x="1988.5" y="-7.8" font-family="Helvetica,sans-Serif" font-size="14.00">class = Negative</text>
</g>
<!-- 35&#45;&gt;36 -->
<g id="edge36" class="edge">
<title>35&#45;&gt;36</title>
<path fill="none" stroke="black" d="M1988.5,-103.73C1988.5,-95.7 1988.5,-87.24 1988.5,-79.11"/>
<polygon fill="black" stroke="black" points="1992,-79.3 1988.5,-69.3 1985,-79.3 1992,-79.3"/>
</g>
<!-- 37 -->
<g id="node38" class="node">
<title>37</title>
<polygon fill="#399de5" stroke="black" points="2183.5,-68 2067.5,-68 2067.5,0 2183.5,0 2183.5,-68"/>
<text text-anchor="middle" x="2125.5" y="-52.8" font-family="Helvetica,sans-Serif" font-size="14.00">entropy = 0.0</text>
<text text-anchor="middle" x="2125.5" y="-37.8" font-family="Helvetica,sans-Serif" font-size="14.00">samples = 1</text>
<text text-anchor="middle" x="2125.5" y="-22.8" font-family="Helvetica,sans-Serif" font-size="14.00">value = [0, 1]</text>
<text text-anchor="middle" x="2125.5" y="-7.8" font-family="Helvetica,sans-Serif" font-size="14.00">class = Positive</text>
</g>
<!-- 35&#45;&gt;37 -->
<g id="edge37" class="edge">
<title>35&#45;&gt;37</title>
<path fill="none" stroke="black" d="M2039.51,-103.73C2051.27,-94.33 2063.76,-84.35 2075.47,-74.99"/>
<polygon fill="black" stroke="black" points="2077.21,-77.28 2082.84,-68.3 2072.84,-71.81 2077.21,-77.28"/>
</g>
<!-- 39 -->
<g id="node40" class="node">
<title>39</title>
<polygon fill="#e58139" stroke="black" points="2013,-298.5 1892,-298.5 1892,-230.5 2013,-230.5 2013,-298.5"/>
<text text-anchor="middle" x="1952.5" y="-283.3" font-family="Helvetica,sans-Serif" font-size="14.00">entropy = 0.0</text>
<text text-anchor="middle" x="1952.5" y="-268.3" font-family="Helvetica,sans-Serif" font-size="14.00">samples = 1</text>
<text text-anchor="middle" x="1952.5" y="-253.3" font-family="Helvetica,sans-Serif" font-size="14.00">value = [1, 0]</text>
<text text-anchor="middle" x="1952.5" y="-238.3" font-family="Helvetica,sans-Serif" font-size="14.00">class = Negative</text>
</g>
<!-- 38&#45;&gt;39 -->
<g id="edge39" class="edge">
<title>38&#45;&gt;39</title>
<path fill="none" stroke="black" d="M1952.5,-341.58C1952.5,-331.32 1952.5,-320.27 1952.5,-309.85"/>
<polygon fill="black" stroke="black" points="1956,-309.86 1952.5,-299.86 1949,-309.86 1956,-309.86"/>
</g>
<!-- 40 -->
<g id="node41" class="node">
<title>40</title>
<polygon fill="#51a9e8" stroke="black" points="2200,-306 2069,-306 2069,-223 2200,-223 2200,-306"/>
<text text-anchor="middle" x="2134.5" y="-290.8" font-family="Helvetica,sans-Serif" font-size="14.00">Glucose &lt;= 172.5</text>
<text text-anchor="middle" x="2134.5" y="-275.8" font-family="Helvetica,sans-Serif" font-size="14.00">entropy = 0.493</text>
<text text-anchor="middle" x="2134.5" y="-260.8" font-family="Helvetica,sans-Serif" font-size="14.00">samples = 65</text>
<text text-anchor="middle" x="2134.5" y="-245.8" font-family="Helvetica,sans-Serif" font-size="14.00">value = [7, 58]</text>
<text text-anchor="middle" x="2134.5" y="-230.8" font-family="Helvetica,sans-Serif" font-size="14.00">class = Positive</text>
</g>
<!-- 38&#45;&gt;40 -->
<g id="edge40" class="edge">
<title>38&#45;&gt;40</title>
<path fill="none" stroke="black" d="M2010.84,-345C2027.13,-334.52 2045.03,-323.02 2062.03,-312.09"/>
<polygon fill="black" stroke="black" points="2063.31,-314.79 2069.83,-306.43 2059.52,-308.9 2063.31,-314.79"/>
</g>
<!-- 41 -->
<g id="node42" class="node">
<title>41</title>
<polygon fill="#399de5" stroke="black" points="2192.5,-179.5 2076.5,-179.5 2076.5,-111.5 2192.5,-111.5 2192.5,-179.5"/>
<text text-anchor="middle" x="2134.5" y="-164.3" font-family="Helvetica,sans-Serif" font-size="14.00">entropy = 0.0</text>
<text text-anchor="middle" x="2134.5" y="-149.3" font-family="Helvetica,sans-Serif" font-size="14.00">samples = 13</text>
<text text-anchor="middle" x="2134.5" y="-134.3" font-family="Helvetica,sans-Serif" font-size="14.00">value = [0, 13]</text>
<text text-anchor="middle" x="2134.5" y="-119.3" font-family="Helvetica,sans-Serif" font-size="14.00">class = Positive</text>
</g>
<!-- 40&#45;&gt;41 -->
<g id="edge41" class="edge">
<title>40&#45;&gt;41</title>
<path fill="none" stroke="black" d="M2134.5,-222.58C2134.5,-212.32 2134.5,-201.27 2134.5,-190.85"/>
<polygon fill="black" stroke="black" points="2138,-190.86 2134.5,-180.86 2131,-190.86 2138,-190.86"/>
</g>
<!-- 42 -->
<g id="node43" class="node">
<title>42</title>
<polygon fill="#58ace9" stroke="black" points="2374.5,-187 2210.5,-187 2210.5,-104 2374.5,-104 2374.5,-187"/>
<text text-anchor="middle" x="2292.5" y="-171.8" font-family="Helvetica,sans-Serif" font-size="14.00">BloodPressure &lt;= 93.5</text>
<text text-anchor="middle" x="2292.5" y="-156.8" font-family="Helvetica,sans-Serif" font-size="14.00">entropy = 0.57</text>
<text text-anchor="middle" x="2292.5" y="-141.8" font-family="Helvetica,sans-Serif" font-size="14.00">samples = 52</text>
<text text-anchor="middle" x="2292.5" y="-126.8" font-family="Helvetica,sans-Serif" font-size="14.00">value = [7, 45]</text>
<text text-anchor="middle" x="2292.5" y="-111.8" font-family="Helvetica,sans-Serif" font-size="14.00">class = Positive</text>
</g>
<!-- 40&#45;&gt;42 -->
<g id="edge42" class="edge">
<title>40&#45;&gt;42</title>
<path fill="none" stroke="black" d="M2189.76,-222.58C2202.27,-213.32 2215.65,-203.41 2228.49,-193.9"/>
<polygon fill="black" stroke="black" points="2230.32,-196.16 2236.27,-187.4 2226.15,-190.54 2230.32,-196.16"/>
</g>
<!-- 43 -->
<g id="node44" class="node">
<title>43</title>
<polygon fill="#50a8e8" stroke="black" points="2334.5,-68 2218.5,-68 2218.5,0 2334.5,0 2334.5,-68"/>
<text text-anchor="middle" x="2276.5" y="-52.8" font-family="Helvetica,sans-Serif" font-size="14.00">entropy = 0.475</text>
<text text-anchor="middle" x="2276.5" y="-37.8" font-family="Helvetica,sans-Serif" font-size="14.00">samples = 49</text>
<text text-anchor="middle" x="2276.5" y="-22.8" font-family="Helvetica,sans-Serif" font-size="14.00">value = [5, 44]</text>
<text text-anchor="middle" x="2276.5" y="-7.8" font-family="Helvetica,sans-Serif" font-size="14.00">class = Positive</text>
</g>
<!-- 42&#45;&gt;43 -->
<g id="edge43" class="edge">
<title>42&#45;&gt;43</title>
<path fill="none" stroke="black" d="M2286.54,-103.73C2285.37,-95.7 2284.13,-87.24 2282.95,-79.11"/>
<polygon fill="black" stroke="black" points="2286.27,-78.69 2281.37,-69.3 2279.35,-79.7 2286.27,-78.69"/>
</g>
<!-- 44 -->
<g id="node45" class="node">
<title>44</title>
<polygon fill="#f2c09c" stroke="black" points="2474,-68 2353,-68 2353,0 2474,0 2474,-68"/>
<text text-anchor="middle" x="2413.5" y="-52.8" font-family="Helvetica,sans-Serif" font-size="14.00">entropy = 0.918</text>
<text text-anchor="middle" x="2413.5" y="-37.8" font-family="Helvetica,sans-Serif" font-size="14.00">samples = 3</text>
<text text-anchor="middle" x="2413.5" y="-22.8" font-family="Helvetica,sans-Serif" font-size="14.00">value = [2, 1]</text>
<text text-anchor="middle" x="2413.5" y="-7.8" font-family="Helvetica,sans-Serif" font-size="14.00">class = Negative</text>
</g>
<!-- 42&#45;&gt;44 -->
<g id="edge44" class="edge">
<title>42&#45;&gt;44</title>
<path fill="none" stroke="black" d="M2337.56,-103.73C2347.74,-94.51 2358.54,-84.74 2368.71,-75.53"/>
<polygon fill="black" stroke="black" points="2370.64,-78.6 2375.7,-69.3 2365.94,-73.41 2370.64,-78.6"/>
</g>
</g>
</svg>
